<svg width="232" height="7" viewBox="0 0 232 7" fill="none" xmlns="http://www.w3.org/2000/svg">
<rect x="0.25" y="2.5" width="223" height="2" fill="white"/>
<path d="M227.043 4.79289L226.336 5.5L227.75 6.91421L228.457 6.20711L227.043 4.79289ZM229.75 3.5L230.457 4.20711L231.164 3.5L230.457 2.79289L229.75 3.5ZM228.457 0.792893L227.75 0.0857865L226.336 1.5L227.043 2.20711L228.457 0.792893ZM228.457 6.20711L230.457 4.20711L229.043 2.79289L227.043 4.79289L228.457 6.20711ZM230.457 2.79289L228.457 0.792893L227.043 2.20711L229.043 4.20711L230.457 2.79289ZM229.75 2.5H223.25V4.5H229.75V2.5Z" fill="white"/>
</svg>
