<svg width="14" height="14" viewBox="0 0 14 14" fill="none" xmlns="http://www.w3.org/2000/svg">
<path d="M7.22727 8.15904L6.52016 8.86615L7.93438 10.2804L8.64148 9.57325L7.22727 8.15904ZM9.80104 6.99948L10.5081 7.70659L11.2153 6.99948L10.5081 6.29237L9.80104 6.99948ZM8.64148 4.42571L7.93438 3.7186L6.52016 5.13281L7.22727 5.83992L8.64148 4.42571ZM8.64148 9.57325L10.5081 7.70659L9.09394 6.29237L7.22727 8.15904L8.64148 9.57325ZM10.5081 6.29237L8.64148 4.42571L7.22727 5.83992L9.09394 7.70659L10.5081 6.29237ZM9.80104 5.99948L3.73438 5.99948L3.73438 7.99948L9.80104 7.99948V5.99948Z" fill="black"/>
</svg>
