<svg width="20" height="20" viewBox="0 0 20 20" fill="none" xmlns="http://www.w3.org/2000/svg">
<path d="M2.5 16.25C1.77365 16.25 1.25 16.8096 1.25 17.5C1.25 18.1904 1.77365 18.75 2.5 18.75C3.22635 18.75 3.75 18.1904 3.75 17.5M2.5 16.25C3.22635 16.25 3.75 16.8096 3.75 17.5M2.5 16.25V10H5M3.75 17.5H11.25M11.25 17.5C11.25 16.8096 11.7737 16.25 12.5 16.25M11.25 17.5C11.25 18.1904 11.7737 18.75 12.5 18.75C13.2263 18.75 13.75 18.1904 13.75 17.5C13.75 16.8096 13.2263 16.25 12.5 16.25M12.5 16.25V11.25M5 10V5H10L11.25 10M5 10V13.75H7.5H10L11.25 10M11.25 10L12.5 11.25M12.5 11.25H16.25M16.25 11.25V1.25M16.25 11.25V17.5H20" stroke="#ffffff"/>
</svg>
