<svg width="38" height="38" viewBox="0 0 38 38" fill="none" xmlns="http://www.w3.org/2000/svg">
<path d="M24.0656 26.5999V36.7333L29.1323 32.9333L34.199 36.7333V26.5999M36.7323 12.6666V3.79993C36.7323 2.40081 35.5981 1.2666 34.199 1.2666H3.79896C2.39984 1.2666 1.26562 2.40081 1.26562 3.79993V34.1999C1.26562 35.5991 2.39984 36.7333 3.79896 36.7333H20.2656M7.59896 11.3999H20.2656M7.59896 18.9999H15.199M29.1323 29.1333C24.9349 29.1333 21.5323 25.7306 21.5323 21.5333C21.5323 17.3359 24.9349 13.9333 29.1323 13.9333C33.3297 13.9333 36.7323 17.3359 36.7323 21.5333C36.7323 25.7306 33.3297 29.1333 29.1323 29.1333Z" stroke="black" stroke-width="1.6" stroke-linejoin="round"/>
</svg>
