<svg width="38" height="38" viewBox="0 0 38 38" fill="none" xmlns="http://www.w3.org/2000/svg">
<path d="M31.6656 31.6666C34.4639 31.6666 36.7323 29.3982 36.7323 26.5999V21.5333C36.7323 18.735 34.4639 16.4666 31.6656 16.4666C30.2665 16.4666 29.1323 17.6008 29.1323 18.9999V29.1333C29.1323 30.5324 30.2665 31.6666 31.6656 31.6666ZM31.6656 31.6666C31.6656 34.4648 29.3972 36.7333 26.599 36.7333H20.2656M36.7323 25.3333V18.9999C36.7323 9.20609 28.7928 1.2666 18.999 1.2666C9.20511 1.2666 1.26562 9.20609 1.26562 18.9999V25.3333M6.33229 31.6666C7.73141 31.6666 8.86562 30.5324 8.86562 29.1333V18.9999C8.86562 17.6008 7.73141 16.4666 6.33229 16.4666C3.53405 16.4666 1.26562 18.735 1.26562 21.5333V26.5999C1.26562 29.3982 3.53405 31.6666 6.33229 31.6666Z" stroke="black" stroke-width="1.6"/>
</svg>
