<svg width="45" height="46" viewBox="0 0 45 46" fill="none" xmlns="http://www.w3.org/2000/svg">
<path d="M22 14V14.5H23V14H22ZM23 13.97V13.47H22V13.97H23ZM23 32V21.5H22V32H23ZM23 14V13.97H22V14H23ZM18 23.5H22.5V22.5H18V23.5ZM18 32.5H27V31.5H18V32.5ZM22.5 2.5C33.8218 2.5 43 11.6782 43 23H44C44 11.1259 34.3741 1.5 22.5 1.5V2.5ZM2 23C2 11.6782 11.1782 2.5 22.5 2.5V1.5C10.6259 1.5 1 11.1259 1 23H2ZM22.5 43.5C11.1782 43.5 2 34.3218 2 23H1C0.999999 34.8741 10.6259 44.5 22.5 44.5V43.5ZM22.5 44.5C34.3741 44.5 44 34.8741 44 23H43C43 34.3218 33.8218 43.5 22.5 43.5V44.5Z" fill="black"/>
</svg>
