<svg width="131" height="30" viewBox="0 0 131 30" fill="none" xmlns="http://www.w3.org/2000/svg">
<path fill-rule="evenodd" clip-rule="evenodd" d="M20.1559 4.37615L10.1561 14.376V0H20.1559V4.37615ZM35.7221 19.9997L45.761 30H59.9312L46.1826 16.2513H13.718L0 30H14.1348L24.1247 19.9997L35.7221 19.9997ZM15.5888 14.3764L29.9322 0.000942185L44.3076 14.3764H15.5888ZM50.1671 14.3764L35.7907 1.99672e-05H49.9326L59.966 10.0334L69.9994 5.21532e-06L79.7952 5.66235e-06V14.3764H69.9994V14.3536L69.9749 14.3764H50.1671ZM52.042 16.2513L52.8951 17.1043L52.8613 17.1381L59.9323 24.209L59.966 24.1753L59.9997 24.209L67.0707 17.1381L67.037 17.1043L67.9556 16.2513H52.042ZM69.9994 16.2513V29.9995H79.7952V16.2513H69.9994ZM84.9989 16.2513L84.9989 22.5021V29.9995L85.129 29.902L85.1308 29.9995L109.505 29.9995L101.717 22.5021H94.9988V16.2513H84.9989ZM104.686 16.2513V19.9997L114.686 29.9995V22.5021H120.936H126.561H130.936V16.2513H104.686ZM130.936 14.3764H104.686V0H114.061H114.686H120.936H130.311H130.936V14.3764ZM94.9988 14.3764H84.9989L84.9989 0H94.9988V14.3764Z" fill="white"/>
</svg>
