<svg width="131" height="30" viewBox="0 0 131 30" fill="none" xmlns="http://www.w3.org/2000/svg">
<path fill-rule="evenodd" clip-rule="evenodd" d="M20.1559 4.37615L10.1561 14.376V0H20.1559V4.37615ZM13.7184 16.251L0 30H14.1348L24.1247 19.9997L35.7221 19.9997L45.761 30H59.9312L46.1822 16.251H13.7184ZM44.3072 14.376H15.5892L29.9322 0.000942185L44.3072 14.376ZM52.0417 16.251L52.8951 17.1043L52.8613 17.1381L59.9323 24.209L59.966 24.1753L59.9997 24.209L67.0707 17.1381L67.037 17.1043L67.956 16.251H52.0417ZM69.9753 14.376H50.1667L35.7907 1.99672e-05H49.9326L59.966 10.0334L69.9994 5.21532e-06L79.7952 5.66235e-06V14.376H69.9994V14.3536L69.9753 14.376ZM69.9994 16.251V29.9995H79.7952V16.251H69.9994ZM84.9989 16.251L84.9989 22.5021V29.9995L85.129 29.902L85.1308 29.9995L109.505 29.9995L101.717 22.5021H94.9988V16.251H84.9989ZM104.686 16.251V19.9997L114.686 29.9995V22.5021H120.936H126.561H130.936V16.251H104.686ZM130.936 14.376H104.686V0H114.061H114.686H120.936H130.311H130.936V14.376ZM94.9988 14.376H84.9989L84.9989 0H94.9988V14.376Z" fill="#111111"/>
</svg>
