<svg width="38" height="40" viewBox="0 0 38 40" fill="none" xmlns="http://www.w3.org/2000/svg">
<path d="M25.9736 17.792C26.2087 17.5165 26.594 17.3301 27.2008 17.2492C28.3639 17.0941 28.4802 17.3267 29.1006 17.792C29.7209 18.2572 30.4964 21.359 30.4576 23.0649C30.4188 24.7709 25.3398 31.9824 24.4868 33.6108C23.8044 34.9135 23.2202 37.7464 23.0135 39H12.2738C11.7826 36.958 10.5911 32.3468 9.75361 30.2377C8.70677 27.6012 7.77626 26.0116 8.04766 24.6158M25.9736 17.792C25.758 18.0445 25.6685 18.3719 25.6499 18.7613C25.6112 19.5755 26.0376 21.8242 25.6499 22.4446C25.2622 23.0649 23.3624 25.5463 22.3931 25.7402C21.4238 25.934 18.8649 26.1666 17.9732 25.7402C17.0814 25.3137 14.949 23.3363 15.802 21.7855C16.6549 20.2346 17.5854 18.0634 18.4384 17.792C19.2914 17.5206 20.9973 17.1717 21.5789 17.4818C22.1605 17.792 24.4092 18.7613 24.7194 18.7613C25.0296 18.7613 25.6769 18.5286 25.9736 17.792ZM25.9736 17.792C26.2405 17.4689 26.7047 16.6832 26.4256 16.1248C26.0766 15.427 23.7503 14.0312 22.1219 13.5271C20.4935 13.0231 17.5081 13.2557 15.802 14.0312C15.5968 14.1244 15.3329 14.328 15.0267 14.6166M8.04766 24.6158C8.28643 23.3878 12.7864 16.7282 15.0267 14.6166M8.04766 24.6158C8.19265 24.0699 8.34857 23.4834 8.51312 22.8648M15.0267 14.6166L17.6541 3.6467C17.8092 3.22043 18.0418 1.51448 16.3746 1.08119C14.7083 0.64811 14.3198 2.05737 14.0484 2.71649C13.9746 2.89565 13.666 3.6558 12.9451 6.31563M12.9451 6.31563L12.5841 2.78742C12.4937 2.14125 11.8864 0.895417 10.1803 1.0815C8.47419 1.26758 8.51312 2.9878 8.51312 4.14442V22.8648M12.9451 6.31563C11.6999 10.9099 9.83014 17.9134 8.51312 22.8648" stroke="#111111" stroke-width="1.6"/>
</svg>
