<svg width="20" height="20" viewBox="0 0 20 20" fill="none" xmlns="http://www.w3.org/2000/svg">
<path fill-rule="evenodd" clip-rule="evenodd" d="M2.32929 2.95244C3.42929 1.79369 3.81804 1.46869 4.28679 1.31744C4.61119 1.23244 4.95141 1.22772 5.27804 1.30369C5.70804 1.42869 5.82179 1.52369 7.23179 2.92869C8.47054 4.16244 8.59429 4.29619 8.71304 4.53744C8.9401 4.96091 8.97557 5.46117 8.81054 5.91244C8.68554 6.25619 8.50804 6.48369 7.75679 7.23744L7.26679 7.72869C7.13811 7.85946 7.10786 8.05804 7.19179 8.22119C8.28046 10.0785 9.825 11.6274 11.6793 12.7212C11.8927 12.8355 12.1556 12.7986 12.3293 12.6299L12.8005 12.1662C13.0918 11.8676 13.4002 11.5863 13.7243 11.3237C14.2332 11.0112 14.8674 10.9833 15.4018 11.2499C15.663 11.3749 15.7493 11.4524 17.0268 12.7274C18.3443 14.0412 18.3818 14.0824 18.5268 14.3837C18.7996 14.8824 18.7968 15.4863 18.5193 15.9824C18.378 16.2624 18.2918 16.3637 17.5505 17.1212C17.103 17.5787 16.6818 17.9962 16.6143 18.0574C16.0028 18.5637 15.2182 18.8121 14.4268 18.7499C12.9787 18.618 11.5771 18.1704 10.3205 17.4387C7.53695 15.9639 5.16729 13.8151 3.42804 11.1887C3.04922 10.639 2.71243 10.0616 2.42054 9.46119C1.63752 8.11915 1.23316 6.58986 1.25054 5.03619C1.31032 4.22339 1.70011 3.47046 2.32929 2.95244Z" stroke="#fff" stroke-linecap="round" stroke-linejoin="round"/>
</svg>
