<svg width="14" height="14" viewBox="0 0 14 14" fill="none" xmlns="http://www.w3.org/2000/svg">
<path d="M4.99844 5.3999H5.79844M8.19844 8.5999H8.99844M8.99844 4.9999L4.99844 8.9999M6.4396 1.63138L5.53638 2.5346C5.38817 2.68281 5.18715 2.76607 4.97755 2.76607H3.55492C3.11845 2.76607 2.76461 3.11991 2.76461 3.55639V4.97901C2.76461 5.18862 2.68134 5.38964 2.53313 5.53785L1.62992 6.44107C1.32128 6.7497 1.32128 7.2501 1.62992 7.55874L2.53313 8.46196C2.68134 8.61017 2.76461 8.81119 2.76461 9.02079V10.4434C2.76461 10.8799 3.11845 11.2337 3.55492 11.2337H4.97755C5.18715 11.2337 5.38817 11.317 5.53638 11.4652L6.4396 12.3684C6.74824 12.6771 7.24864 12.6771 7.55727 12.3684L8.46049 11.4652C8.6087 11.317 8.80972 11.2337 9.01933 11.2337H10.442C10.8784 11.2337 11.2323 10.8799 11.2323 10.4434V9.02079C11.2323 8.81119 11.3155 8.61017 11.4637 8.46196L12.367 7.55874C12.6756 7.2501 12.6756 6.7497 12.367 6.44107L11.4637 5.53785C11.3155 5.38964 11.2323 5.18862 11.2323 4.97901V3.55639C11.2323 3.11991 10.8784 2.76607 10.442 2.76607H9.01933C8.80972 2.76607 8.6087 2.68281 8.46049 2.5346L7.55727 1.63138C7.24864 1.32274 6.74824 1.32274 6.4396 1.63138Z" stroke="white"/>
</svg>
