<svg width="20" height="20" viewBox="0 0 20 20" fill="none" xmlns="http://www.w3.org/2000/svg">
<path d="M4.66667 0L4.66667 11.3333M4.66667 11.3333C3.19391 11.3333 2 12.5272 2 14C2 15.4728 3.19391 16.6667 4.66667 16.6667M4.66667 11.3333C6.13943 11.3333 7.33333 12.5272 7.33333 14C7.33333 15.4728 6.13943 16.6667 4.66667 16.6667M4.66667 16.6667V20M15.3333 0L15.3333 3.33333M15.3333 3.33333C13.8606 3.33333 12.6667 4.52724 12.6667 6C12.6667 7.47276 13.8606 8.66667 15.3333 8.66667M15.3333 3.33333C16.8061 3.33333 18 4.52724 18 6C18 7.47276 16.8061 8.66667 15.3333 8.66667M15.3333 8.66667V20" stroke="white"/>
</svg>
