<svg width="16" height="16" viewBox="0 0 16 16" fill="none" xmlns="http://www.w3.org/2000/svg">
<path d="M14.87 11.5119C14.87 11.4562 14.8143 11.4562 14.8143 11.4005C14.5914 10.9549 14.0901 10.3978 13.4217 9.78511C13.0875 9.50659 12.9204 9.28378 12.809 9.17237C12.6418 8.94956 12.6419 8.78246 12.6976 8.55965C12.7533 8.39254 12.9761 8.11402 13.366 7.6127C13.5888 7.33419 13.7002 7.16708 13.8673 6.99998C14.7028 5.88592 15.0928 5.16178 14.9814 4.82757L14.9257 4.77187C14.87 4.71617 14.8142 4.66047 14.7028 4.66047C14.5914 4.60476 14.4243 4.60476 14.2572 4.66047H12.1405C12.0848 4.66047 12.0848 4.66047 11.9734 4.66047C11.9177 4.66047 11.862 4.66047 11.862 4.66047H11.8063H11.7506L11.6949 4.71616C11.6392 4.77187 11.6392 4.77186 11.6392 4.82757C11.4164 5.4403 11.1379 5.94162 10.8594 6.49865C10.6923 6.77716 10.5252 7.05568 10.358 7.27849C10.1909 7.5013 10.0795 7.6684 9.96812 7.77981C9.85671 7.89121 9.74531 7.94692 9.68961 8.05832C9.6339 8.11402 9.5225 8.16973 9.5225 8.11403C9.4668 8.11403 9.41109 8.11402 9.41109 8.05832C9.35539 8.00262 9.29969 7.94692 9.24399 7.89121C9.18829 7.83551 9.18828 7.7241 9.13258 7.6127C9.13258 7.50129 9.13258 7.38989 9.13258 7.33419C9.13258 7.27848 9.13258 7.11138 9.13258 6.99998C9.13258 6.83287 9.13258 6.72146 9.13258 6.66576C9.13258 6.49865 9.13258 6.27584 9.13258 6.05303C9.13258 5.83022 9.13258 5.66311 9.13258 5.5517C9.13258 5.4403 9.13258 5.27319 9.13258 5.16179C9.13258 4.99468 9.13258 4.88327 9.13258 4.82757C9.13258 4.77186 9.07689 4.66046 9.07689 4.60476C9.02119 4.54906 8.96547 4.49335 8.90977 4.43765C8.85407 4.38195 8.74267 4.38195 8.68696 4.32625C8.40845 4.27054 8.07424 4.21484 7.68432 4.21484C6.79308 4.21484 6.18035 4.27055 5.95754 4.38195C5.84613 4.43766 5.73473 4.49336 5.67903 4.60476C5.56762 4.71617 5.56762 4.77187 5.62332 4.77187C5.90183 4.82757 6.12465 4.93897 6.23605 5.10608L6.29176 5.21749C6.34746 5.2732 6.34745 5.3846 6.40315 5.5517C6.45886 5.71881 6.45886 5.88592 6.45886 6.10873C6.45886 6.44295 6.45886 6.77716 6.45886 6.99998C6.45886 7.27849 6.40315 7.44559 6.40315 7.6127C6.40315 7.77981 6.34746 7.89122 6.29176 7.94692C6.23606 8.05832 6.23605 8.11403 6.18035 8.11403C6.18035 8.11403 6.18034 8.16973 6.12464 8.16973C6.06894 8.16973 6.01324 8.22543 5.90183 8.22543C5.84613 8.22543 5.73473 8.16973 5.67903 8.11403C5.56762 8.05833 5.45622 7.94692 5.40051 7.83551C5.28911 7.72411 5.1777 7.557 5.06629 7.33419C4.95489 7.11138 4.78777 6.88857 4.67637 6.55435L4.56497 6.33155C4.50927 6.22014 4.39787 5.99733 4.28646 5.71881C4.17506 5.4403 4.06365 5.21749 3.95224 4.93898C3.89654 4.82757 3.84084 4.77187 3.78514 4.71616H3.72943C3.72943 4.71616 3.67372 4.66047 3.61802 4.66047C3.56232 4.66047 3.50662 4.60476 3.45092 4.60476H1.44562C1.22281 4.60476 1.11141 4.66046 1.05571 4.71616L1 4.77187C1 4.77187 1 4.82757 1 4.88327C1 4.93898 1 4.99468 1.05571 5.10608C1.33422 5.77451 1.66843 6.44295 2.00265 7.11138C2.33686 7.72411 2.67108 8.28114 2.89389 8.67105C3.17241 9.06097 3.39521 9.45089 3.67373 9.78511C3.95224 10.1193 4.11935 10.3421 4.17505 10.4535C4.28645 10.5649 4.34215 10.6206 4.39786 10.6763L4.56497 10.8435C4.67638 10.9549 4.84348 11.122 5.06629 11.2891C5.2891 11.4562 5.56761 11.6233 5.84613 11.7904C6.12464 11.9575 6.45886 12.0689 6.79308 12.1803C7.183 12.2917 7.51721 12.3474 7.85143 12.2917H8.68696C8.85407 12.2917 8.96549 12.236 9.07689 12.1246L9.13258 12.0689C9.13258 12.0132 9.18828 12.0132 9.18828 11.9575C9.18828 11.9018 9.18828 11.8461 9.18828 11.7347C9.18828 11.5119 9.18829 11.3448 9.24399 11.1777C9.29969 11.0106 9.2997 10.8992 9.3554 10.7878C9.41111 10.6764 9.4668 10.6206 9.5225 10.5649C9.57821 10.5092 9.63392 10.4535 9.63392 10.4535H9.68961C9.80101 10.3978 9.96813 10.4535 10.0795 10.5649C10.2466 10.6763 10.4137 10.8435 10.5251 11.0106C10.6365 11.1777 10.8037 11.3448 11.0265 11.5676C11.2493 11.7904 11.4164 11.9575 11.5278 12.0132L11.6949 12.1246C11.8063 12.1803 11.9177 12.236 12.0848 12.2917C12.2519 12.3474 12.3633 12.3474 12.4747 12.3474L14.3686 12.2917C14.5357 12.2917 14.7028 12.236 14.8143 12.1803C14.9257 12.1246 14.9814 12.0689 14.9814 11.9575C14.9814 11.9018 14.9814 11.7904 14.9814 11.7347C14.87 11.6233 14.87 11.5676 14.87 11.5119Z" fill="white" stroke="black"/>
</svg>
