<svg width="62" height="63" viewBox="0 0 62 63" fill="none" xmlns="http://www.w3.org/2000/svg">
<path d="M31.4997 43.8997V43.3997H30.4997V43.8997H31.4997ZM30.4997 43.9411V44.4411H31.4997V43.9411H30.4997ZM30.4997 17.0331V40.9347H31.4997V17.0331H30.4997ZM30.4997 43.8997V43.9411H31.4997V43.8997H30.4997ZM30.9997 59.9331C15.2964 59.9331 2.56641 47.203 2.56641 31.4997H1.56641C1.56641 47.7553 14.7442 60.9331 30.9997 60.9331V59.9331ZM59.4331 31.4997C59.4331 47.203 46.703 59.9331 30.9997 59.9331V60.9331C47.2553 60.9331 60.4331 47.7553 60.4331 31.4997H59.4331ZM30.9997 3.06641C46.703 3.06641 59.4331 15.7964 59.4331 31.4997H60.4331C60.4331 15.2442 47.2553 2.06641 30.9997 2.06641V3.06641ZM30.9997 2.06641C14.7442 2.06641 1.56641 15.2442 1.56641 31.4997H2.56641C2.56641 15.7964 15.2964 3.06641 30.9997 3.06641V2.06641Z" fill="black"/>
</svg>
