<svg width="15" height="16" viewBox="0 0 15 16" fill="none" xmlns="http://www.w3.org/2000/svg">
<path d="M1.8998 12.2004L2.34701 12.424L2.48533 12.1474L2.29956 11.9001L1.8998 12.2004ZM3.29959 13.6002L3.59991 13.2004L3.35262 13.0147L3.07598 13.153L3.29959 13.6002ZM0.5 15L0.0527864 14.7764C-0.0434608 14.9689 -0.00573355 15.2014 0.146447 15.3536C0.298627 15.5057 0.531113 15.5435 0.723607 15.4472L0.5 15ZM4.5 5L4.22265 4.58397C4.08355 4.67671 4 4.83282 4 5H4.5ZM10.5 11V11.5C10.6672 11.5 10.8233 11.4164 10.916 11.2774L10.5 11ZM6.25426 5.52554L6.74745 5.44334L6.25426 5.52554ZM6.3937 6.36221L5.90051 6.44441L6.3937 6.36221ZM5.96201 7.35866L6.23936 7.77469H6.23936L5.96201 7.35866ZM10.6421 10.7868L11.0581 11.0642L10.6421 10.7868ZM9.97446 9.24574L10.0567 8.75255L9.97446 9.24574ZM9.13779 9.1063L9.05559 9.59949V9.5995L9.13779 9.1063ZM8.14134 9.53799L7.72531 9.26064L8.14134 9.53799ZM0 8C0 9.68803 0.558266 11.2471 1.50003 12.5007L2.29956 11.9001C1.48342 10.8137 1 9.46403 1 8H0ZM7.5 0.5C3.35786 0.5 0 3.85786 0 8H1C1 4.41015 3.91015 1.5 7.5 1.5V0.5ZM15 8C15 3.85786 11.6421 0.5 7.5 0.5V1.5C11.0899 1.5 14 4.41015 14 8H15ZM7.5 15.5C11.6421 15.5 15 12.1421 15 8H14C14 11.5899 11.0899 14.5 7.5 14.5V15.5ZM2.99927 14C4.25289 14.9417 5.81197 15.5 7.5 15.5V14.5C6.03597 14.5 4.68629 14.0166 3.59991 13.2004L2.99927 14ZM0.723607 15.4472L3.5232 14.0474L3.07598 13.153L0.276393 14.5528L0.723607 15.4472ZM1.45258 11.9768L0.0527864 14.7764L0.947214 15.2236L2.34701 12.424L1.45258 11.9768ZM4 5V6H5V5H4ZM9.5 11.5H10.5V10.5H9.5V11.5ZM4 6C4 9.03757 6.46243 11.5 9.5 11.5V10.5C7.01472 10.5 5 8.48528 5 6H4ZM4.77735 5.41603L4.99051 5.27392L4.43581 4.44187L4.22265 4.58397L4.77735 5.41603ZM5.76106 5.60774L5.90051 6.44441L6.8869 6.28001L6.74745 5.44334L5.76106 5.60774ZM5.68466 6.94264L4.72265 7.58397L5.27735 8.41603L6.23936 7.77469L5.68466 6.94264ZM5.90051 6.44441C5.93285 6.63849 5.84837 6.8335 5.68466 6.94264L6.23936 7.77469C6.73049 7.44727 6.98394 6.86225 6.8869 6.28001L5.90051 6.44441ZM4.99051 5.27392C5.29241 5.07266 5.70141 5.24985 5.76106 5.60774L6.74745 5.44334C6.56851 4.36967 5.34149 3.83808 4.43581 4.44187L4.99051 5.27392ZM10.916 11.2774L11.0581 11.0642L10.2261 10.5095L10.084 10.7226L10.916 11.2774ZM10.0567 8.75255L9.21999 8.6131L9.05559 9.5995L9.89226 9.73894L10.0567 8.75255ZM7.72531 9.26064L7.08397 10.2226L7.91603 10.7774L8.55736 9.81534L7.72531 9.26064ZM9.21999 8.6131C8.63775 8.51606 8.05273 8.76951 7.72531 9.26064L8.55736 9.81534C8.6665 9.65163 8.86151 9.56715 9.05559 9.59949L9.21999 8.6131ZM11.0581 11.0642C11.6619 10.1585 11.1303 8.93149 10.0567 8.75255L9.89226 9.73894C10.2502 9.79859 10.4273 10.2076 10.2261 10.5095L11.0581 11.0642Z" fill="black"/>
</svg>
